<svg width="100" height="142" viewBox="0 0 100 142" fill="none" xmlns="http://www.w3.org/2000/svg">
<rect y="21" width="100" height="100" rx="10" fill="#00873B"/>
<path fill-rule="evenodd" clip-rule="evenodd" d="M60.8333 56.4166V74.3541L65 78.5208V52.2499C65 49.9583 63.125 48.0833 60.8333 48.0833H40C38.5208 48.0833 37.2292 48.8541 36.5 50.0208L42.8958 56.4166H60.8333ZM28.5208 53.8334L35.8333 61.1459V89.75C35.8333 92.0417 37.7083 93.9167 40 93.9167H60.8333C62.9583 93.9167 64.6875 92.3125 64.9583 90.2709L68.5417 93.8542L71.4792 90.9167L31.4583 50.8959L28.5208 53.8334ZM60.2709 85.5833L40 65.3124V85.5833H60.2709Z" fill="white"/>
<path d="M15.208 8.044C15.208 7.204 15.1707 6.52733 15.096 6.014C15.0307 5.50067 14.9327 5.104 14.802 4.824C14.6713 4.544 14.5173 4.35733 14.34 4.264C14.172 4.17067 13.9807 4.124 13.766 4.124C13.6353 4.124 13.4907 4.12867 13.332 4.138C13.1827 4.138 13.038 4.14267 12.898 4.152C12.73 4.16133 12.5667 4.17067 12.408 4.18V12.02C12.548 12.0293 12.6973 12.0387 12.856 12.048C12.9867 12.0573 13.1313 12.0667 13.29 12.076C13.4487 12.076 13.6027 12.076 13.752 12.076C13.9667 12.076 14.1627 12.0107 14.34 11.88C14.5267 11.7493 14.6807 11.53 14.802 11.222C14.9327 10.9047 15.0307 10.4893 15.096 9.976C15.1707 9.45333 15.208 8.80933 15.208 8.044ZM16.454 7.946C16.454 8.99133 16.3933 9.85 16.272 10.522C16.16 11.1847 15.9827 11.7073 15.74 12.09C15.5067 12.4727 15.2127 12.7387 14.858 12.888C14.5033 13.028 14.0927 13.098 13.626 13.098C13.3553 13.098 13.0753 13.0933 12.786 13.084C12.506 13.084 12.2447 13.0747 12.002 13.056C11.722 13.0373 11.4513 13.0187 11.19 13V3.2C11.442 3.18133 11.6987 3.16267 11.96 3.144C12.184 3.12533 12.4267 3.116 12.688 3.116C12.9587 3.10667 13.2153 3.102 13.458 3.102C13.9527 3.102 14.3867 3.16267 14.76 3.284C15.1333 3.396 15.446 3.62933 15.698 3.984C15.95 4.32933 16.1367 4.81933 16.258 5.454C16.3887 6.07933 16.454 6.91 16.454 7.946ZM19.4691 9.92C19.4785 10.3773 19.5111 10.7507 19.5671 11.04C19.6325 11.32 19.7165 11.5393 19.8191 11.698C19.9218 11.8567 20.0431 11.964 20.1831 12.02C20.3231 12.0667 20.4818 12.09 20.6591 12.09C21.0511 12.09 21.4058 12.0667 21.7231 12.02C22.0498 11.964 22.3205 11.9127 22.5351 11.866V12.874C22.3111 12.9393 22.0265 12.9907 21.6811 13.028C21.3451 13.0747 21.0511 13.098 20.7991 13.098C20.3978 13.098 20.0385 13.056 19.7211 12.972C19.4131 12.888 19.1518 12.72 18.9371 12.468C18.7225 12.216 18.5591 11.8567 18.4471 11.39C18.3351 10.914 18.2791 10.284 18.2791 9.5C18.2791 8.856 18.3305 8.30533 18.4331 7.848C18.5451 7.39067 18.7085 7.01733 18.9231 6.728C19.1378 6.43867 19.4038 6.22867 19.7211 6.098C20.0385 5.96733 20.4071 5.902 20.8271 5.902C21.6298 5.902 22.2038 6.168 22.5491 6.7C22.9038 7.22267 23.0811 7.946 23.0811 8.87V9.92H19.4691ZM20.7991 6.896C20.5751 6.896 20.3838 6.92867 20.2251 6.994C20.0665 7.05933 19.9358 7.17133 19.8331 7.33C19.7305 7.48867 19.6511 7.70333 19.5951 7.974C19.5391 8.23533 19.5018 8.56667 19.4831 8.968H21.9191V8.59C21.9191 8.058 21.8351 7.64267 21.6671 7.344C21.5085 7.04533 21.2191 6.896 20.7991 6.896ZM28.846 10.97C28.846 11.7447 28.6313 12.2953 28.202 12.622C27.782 12.9393 27.2126 13.098 26.494 13.098C26.0926 13.098 25.752 13.07 25.472 13.014C25.192 12.9673 24.9726 12.9207 24.814 12.874V11.852C24.898 11.8707 25.0053 11.894 25.136 11.922C25.276 11.9407 25.4253 11.964 25.584 11.992C25.7426 12.0107 25.906 12.0293 26.074 12.048C26.2513 12.0667 26.424 12.076 26.592 12.076C26.7786 12.076 26.9326 12.048 27.054 11.992C27.1846 11.9267 27.2873 11.8473 27.362 11.754C27.446 11.6513 27.5066 11.5393 27.544 11.418C27.5813 11.2873 27.6 11.1613 27.6 11.04C27.6 10.704 27.5393 10.4567 27.418 10.298C27.306 10.1393 27.0726 10.0273 26.718 9.962C25.9993 9.83133 25.4906 9.60733 25.192 9.29C24.9026 8.96333 24.758 8.53867 24.758 8.016C24.758 7.63333 24.8186 7.31133 24.94 7.05C25.0613 6.77933 25.2246 6.56 25.43 6.392C25.6446 6.224 25.892 6.10267 26.172 6.028C26.4613 5.944 26.774 5.902 27.11 5.902C27.474 5.902 27.7773 5.93467 28.02 6C28.272 6.056 28.468 6.10267 28.608 6.14V7.162C28.3653 7.106 28.132 7.05 27.908 6.994C27.684 6.938 27.3806 6.91 26.998 6.91C26.7833 6.91 26.606 6.94267 26.466 7.008C26.3353 7.064 26.2326 7.14333 26.158 7.246C26.0833 7.33933 26.032 7.44667 26.004 7.568C25.9853 7.68933 25.976 7.81533 25.976 7.946C25.976 8.45933 26.2746 8.76267 26.872 8.856C27.6 8.97733 28.1086 9.206 28.398 9.542C28.6966 9.878 28.846 10.354 28.846 10.97ZM30.6708 13V6H31.6508L31.7488 6.616C32.1781 6.14 32.7054 5.902 33.3308 5.902C33.7694 5.902 34.1194 5.986 34.3808 6.154C34.6421 6.31267 34.8474 6.52267 34.9968 6.784C35.4448 6.196 36.0328 5.902 36.7608 5.902C37.4794 5.902 37.9834 6.10267 38.2728 6.504C38.5714 6.896 38.7208 7.52133 38.7208 8.38V13H37.5308V8.24C37.5308 7.792 37.4654 7.46067 37.3348 7.246C37.2134 7.022 36.9521 6.91 36.5508 6.91C36.3641 6.91 36.1914 6.94733 36.0328 7.022C35.8834 7.09667 35.7528 7.19467 35.6408 7.316C35.5288 7.43733 35.4401 7.568 35.3748 7.708C35.3188 7.83867 35.2908 7.96933 35.2908 8.1V13H34.1008V8.24C34.1008 7.792 34.0354 7.46067 33.9048 7.246C33.7834 7.022 33.5221 6.91 33.1208 6.91C32.9341 6.91 32.7614 6.94733 32.6028 7.022C32.4534 7.09667 32.3228 7.19467 32.2108 7.316C32.0988 7.43733 32.0101 7.568 31.9448 7.708C31.8888 7.83867 31.8608 7.96933 31.8608 8.1V13H30.6708ZM46.0073 9.36C46.0073 10.0973 45.9513 10.7087 45.8393 11.194C45.7273 11.67 45.5593 12.0527 45.3353 12.342C45.1113 12.622 44.8313 12.818 44.4953 12.93C44.1687 13.042 43.786 13.098 43.3473 13.098C42.918 13.098 42.5353 13.042 42.1993 12.93C41.8727 12.818 41.5973 12.622 41.3733 12.342C41.1493 12.0527 40.9767 11.67 40.8553 11.194C40.7433 10.7087 40.6873 10.0973 40.6873 9.36C40.6873 8.16533 40.902 7.29267 41.3313 6.742C41.7607 6.182 42.4327 5.902 43.3473 5.902C44.262 5.902 44.934 6.182 45.3633 6.742C45.7927 7.29267 46.0073 8.16533 46.0073 9.36ZM44.7893 9.57C44.7893 9.07533 44.766 8.65533 44.7193 8.31C44.6727 7.96467 44.5933 7.68933 44.4813 7.484C44.3787 7.26933 44.234 7.11533 44.0473 7.022C43.8607 6.92867 43.6273 6.882 43.3473 6.882C43.0673 6.882 42.834 6.92867 42.6473 7.022C42.4607 7.11533 42.3113 7.26933 42.1993 7.484C42.0967 7.68933 42.022 7.96467 41.9753 8.31C41.9287 8.65533 41.9053 9.07533 41.9053 9.57C41.9053 10.4847 42.0127 11.138 42.2273 11.53C42.442 11.922 42.8153 12.118 43.3473 12.118C43.8793 12.118 44.2527 11.922 44.4673 11.53C44.682 11.138 44.7893 10.4847 44.7893 9.57ZM48.0341 13V6H49.0141L49.1121 6.63C49.5694 6.14467 50.1434 5.902 50.8341 5.902C51.2354 5.902 51.5714 5.95333 51.8421 6.056C52.1127 6.14933 52.3274 6.29867 52.4861 6.504C52.6541 6.7 52.7707 6.95667 52.8361 7.274C52.9107 7.582 52.9481 7.95067 52.9481 8.38V13H51.7581V8.24C51.7581 7.80133 51.6834 7.47 51.5341 7.246C51.3941 7.022 51.0907 6.91 50.6241 6.91C50.4281 6.91 50.2414 6.94733 50.0641 7.022C49.8961 7.09667 49.7467 7.19467 49.6161 7.316C49.4947 7.43733 49.3967 7.568 49.3221 7.708C49.2567 7.83867 49.2241 7.96933 49.2241 8.1V13H48.0341ZM56.4461 7.05V11.32C56.4461 11.3853 56.4554 11.4647 56.4741 11.558C56.4928 11.642 56.5254 11.726 56.5721 11.81C56.6281 11.8847 56.6981 11.95 56.7821 12.006C56.8754 12.062 56.9968 12.09 57.1461 12.09C57.3608 12.09 57.5428 12.076 57.6921 12.048C57.8414 12.0107 57.9674 11.978 58.0701 11.95V12.93C57.9768 12.958 57.8134 12.9907 57.5801 13.028C57.3561 13.0747 57.1181 13.098 56.8661 13.098C56.5861 13.098 56.3434 13.0513 56.1381 12.958C55.9328 12.8647 55.7648 12.734 55.6341 12.566C55.5034 12.398 55.4054 12.202 55.3401 11.978C55.2841 11.754 55.2561 11.5113 55.2561 11.25V7.05H54.3461V6H55.2561V4.32H56.4461V6H58.0701V7.05H56.4461ZM64.1781 13C64.1128 13 64.0288 12.9907 63.9261 12.972C63.8328 12.9533 63.7348 12.9207 63.6321 12.874C63.5295 12.8273 63.4315 12.7573 63.3381 12.664C63.2541 12.5707 63.1841 12.454 63.1281 12.314C62.9508 12.566 62.7175 12.762 62.4281 12.902C62.1388 13.0327 61.7561 13.098 61.2801 13.098C61.0281 13.098 60.7761 13.07 60.5241 13.014C60.2721 12.9673 60.0481 12.8693 59.8521 12.72C59.6561 12.5613 59.4975 12.3467 59.3761 12.076C59.2548 11.8053 59.1941 11.4553 59.1941 11.026C59.1941 10.27 59.4135 9.69133 59.8521 9.29C60.2908 8.88867 60.9021 8.688 61.6861 8.688H62.7921V7.932C62.7921 7.63333 62.7035 7.39067 62.5261 7.204C62.3581 7.008 62.0968 6.91 61.7421 6.91C61.3408 6.91 60.9908 6.93333 60.6921 6.98C60.3935 7.02667 60.0668 7.10133 59.7121 7.204V6.182C59.9735 6.10733 60.2675 6.042 60.5941 5.986C60.9208 5.93 61.2568 5.902 61.6021 5.902C62.0595 5.902 62.4375 5.94867 62.7361 6.042C63.0441 6.126 63.2868 6.266 63.4641 6.462C63.6508 6.64867 63.7815 6.88667 63.8561 7.176C63.9401 7.46533 63.9821 7.81067 63.9821 8.212V11.572C63.9821 11.712 64.0288 11.824 64.1221 11.908C64.2155 11.9827 64.3741 12.02 64.5981 12.02V13H64.1781ZM61.5601 12.09C61.8028 12.09 62.0035 12.0527 62.1621 11.978C62.3208 11.9033 62.4468 11.8147 62.5401 11.712C62.6335 11.6 62.6988 11.488 62.7361 11.376C62.7735 11.264 62.7921 11.1753 62.7921 11.11V9.64H61.6161C61.4668 9.64 61.3175 9.66333 61.1681 9.71C61.0281 9.75667 60.9021 9.836 60.7901 9.948C60.6781 10.0507 60.5848 10.186 60.5101 10.354C60.4448 10.5127 60.4121 10.7087 60.4121 10.942C60.4121 11.3807 60.5101 11.684 60.7061 11.852C60.9021 12.0107 61.1868 12.09 61.5601 12.09ZM71.4644 8.45C71.4644 9.24333 71.231 9.836 70.7644 10.228C70.307 10.6107 69.5977 10.802 68.6364 10.802C68.291 10.802 67.983 10.774 67.7124 10.718C67.619 10.9233 67.5724 11.124 67.5724 11.32C67.5724 11.4413 67.5957 11.572 67.6424 11.712C67.9597 11.684 68.2724 11.6607 68.5804 11.642C68.8884 11.614 69.159 11.6 69.3924 11.6C69.7284 11.6 70.0364 11.628 70.3164 11.684C70.6057 11.74 70.853 11.8473 71.0584 12.006C71.2637 12.1553 71.4224 12.3653 71.5344 12.636C71.6557 12.9067 71.7164 13.2567 71.7164 13.686C71.7164 14.0407 71.6464 14.3393 71.5064 14.582C71.3757 14.834 71.189 15.0393 70.9464 15.198C70.713 15.3567 70.433 15.4733 70.1064 15.548C69.789 15.6227 69.4437 15.66 69.0704 15.66C68.893 15.66 68.6784 15.6507 68.4264 15.632C68.1744 15.6133 67.9177 15.59 67.6564 15.562C67.4044 15.5433 67.1617 15.52 66.9284 15.492C66.7044 15.464 66.527 15.436 66.3964 15.408V14.4C66.5737 14.428 66.7744 14.456 66.9984 14.484C67.2317 14.5213 67.4697 14.5493 67.7124 14.568C67.9644 14.5867 68.2164 14.6007 68.4684 14.61C68.7204 14.6287 68.9584 14.638 69.1824 14.638C69.6584 14.638 69.9944 14.5447 70.1904 14.358C70.3957 14.1807 70.4984 13.9567 70.4984 13.686C70.4984 13.3313 70.4144 13.07 70.2464 12.902C70.0877 12.734 69.7797 12.65 69.3224 12.65C69.1917 12.65 69.0237 12.6547 68.8184 12.664C68.613 12.6733 68.3984 12.6873 68.1744 12.706C67.9597 12.7153 67.745 12.7293 67.5304 12.748C67.325 12.7667 67.1524 12.7853 67.0124 12.804C66.8537 12.6547 66.7137 12.454 66.5924 12.202C66.4804 11.9407 66.4244 11.7027 66.4244 11.488C66.4244 11.208 66.457 10.9747 66.5224 10.788C66.5877 10.6013 66.681 10.4427 66.8024 10.312C66.5317 10.1067 66.3404 9.84067 66.2284 9.514C66.1257 9.18733 66.0744 8.79533 66.0744 8.338C66.0744 7.834 66.1537 7.42333 66.3124 7.106C66.471 6.78867 66.681 6.54133 66.9424 6.364C67.213 6.18667 67.521 6.06533 67.8664 6C68.221 5.93467 68.5944 5.902 68.9864 5.902C69.397 5.902 69.761 5.96733 70.0784 6.098L72.1084 6V7.05L71.1424 7.008C71.357 7.40933 71.4644 7.89 71.4644 8.45ZM70.2744 8.338C70.2744 8.142 70.251 7.96 70.2044 7.792C70.167 7.61467 70.0924 7.46067 69.9804 7.33C69.8684 7.19933 69.719 7.09667 69.5324 7.022C69.355 6.938 69.1264 6.896 68.8464 6.896C68.2397 6.896 67.8244 7.022 67.6004 7.274C67.3764 7.51667 67.2644 7.90867 67.2644 8.45C67.2644 8.646 67.283 8.83267 67.3204 9.01C67.367 9.178 67.4417 9.32267 67.5444 9.444C67.647 9.56533 67.787 9.66333 67.9644 9.738C68.1417 9.80333 68.3657 9.836 68.6364 9.836C68.8697 9.836 69.0844 9.81733 69.2804 9.78C69.4857 9.74267 69.6584 9.67267 69.7984 9.57C69.9477 9.458 70.0644 9.304 70.1484 9.108C70.2324 8.912 70.2744 8.65533 70.2744 8.338ZM74.6352 9.92C74.6445 10.3773 74.6772 10.7507 74.7332 11.04C74.7985 11.32 74.8825 11.5393 74.9852 11.698C75.0878 11.8567 75.2092 11.964 75.3492 12.02C75.4892 12.0667 75.6478 12.09 75.8252 12.09C76.2172 12.09 76.5718 12.0667 76.8892 12.02C77.2158 11.964 77.4865 11.9127 77.7012 11.866V12.874C77.4772 12.9393 77.1925 12.9907 76.8472 13.028C76.5112 13.0747 76.2172 13.098 75.9652 13.098C75.5638 13.098 75.2045 13.056 74.8872 12.972C74.5792 12.888 74.3178 12.72 74.1032 12.468C73.8885 12.216 73.7252 11.8567 73.6132 11.39C73.5012 10.914 73.4452 10.284 73.4452 9.5C73.4452 8.856 73.4965 8.30533 73.5992 7.848C73.7112 7.39067 73.8745 7.01733 74.0892 6.728C74.3038 6.43867 74.5698 6.22867 74.8872 6.098C75.2045 5.96733 75.5732 5.902 75.9932 5.902C76.7958 5.902 77.3698 6.168 77.7152 6.7C78.0698 7.22267 78.2472 7.946 78.2472 8.87V9.92H74.6352ZM75.9652 6.896C75.7412 6.896 75.5498 6.92867 75.3912 6.994C75.2325 7.05933 75.1018 7.17133 74.9992 7.33C74.8965 7.48867 74.8172 7.70333 74.7612 7.974C74.7052 8.23533 74.6678 8.56667 74.6492 8.968H77.0852V8.59C77.0852 8.058 77.0012 7.64267 76.8332 7.344C76.6745 7.04533 76.3852 6.896 75.9652 6.896ZM80.204 13V6H81.184L81.282 6.616C81.7113 6.14 82.2387 5.902 82.864 5.902C83.3027 5.902 83.6527 5.986 83.914 6.154C84.1753 6.31267 84.3807 6.52267 84.53 6.784C84.978 6.196 85.566 5.902 86.294 5.902C87.0127 5.902 87.5167 6.10267 87.806 6.504C88.1047 6.896 88.254 7.52133 88.254 8.38V13H87.064V8.24C87.064 7.792 86.9987 7.46067 86.868 7.246C86.7467 7.022 86.4853 6.91 86.084 6.91C85.8973 6.91 85.7247 6.94733 85.566 7.022C85.4167 7.09667 85.286 7.19467 85.174 7.316C85.062 7.43733 84.9733 7.568 84.908 7.708C84.852 7.83867 84.824 7.96933 84.824 8.1V13H83.634V8.24C83.634 7.792 83.5687 7.46067 83.438 7.246C83.3167 7.022 83.0553 6.91 82.654 6.91C82.4673 6.91 82.2947 6.94733 82.136 7.022C81.9867 7.09667 81.856 7.19467 81.744 7.316C81.632 7.43733 81.5433 7.568 81.478 7.708C81.422 7.83867 81.394 7.96933 81.394 8.1V13H80.204Z" fill="black"/>
</svg>
