<svg width="48" height="59" viewBox="0 0 48 59" fill="none" xmlns="http://www.w3.org/2000/svg">
<path d="M2 10.5C1.17157 10.5 0.5 11.1716 0.5 12C0.5 12.8284 1.17157 13.5 2 13.5V10.5ZM47.072 13.0607C47.6578 12.4749 47.6578 11.5251 47.072 10.9393L37.5261 1.3934C36.9403 0.807611 35.9905 0.807611 35.4048 1.3934C34.819 1.97919 34.819 2.92893 35.4048 3.51472L43.89 12L35.4048 20.4853C34.819 21.0711 34.819 22.0208 35.4048 22.6066C35.9905 23.1924 36.9403 23.1924 37.5261 22.6066L47.072 13.0607ZM2 13.5H46.0114V10.5H2V13.5Z" fill="white"/>
<path d="M2 10.5C1.17157 10.5 0.5 11.1716 0.5 12C0.5 12.8284 1.17157 13.5 2 13.5V10.5ZM47.072 13.0607C47.6578 12.4749 47.6578 11.5251 47.072 10.9393L37.5261 1.3934C36.9403 0.807611 35.9905 0.807611 35.4048 1.3934C34.819 1.97919 34.819 2.92893 35.4048 3.51472L43.89 12L35.4048 20.4853C34.819 21.0711 34.819 22.0208 35.4048 22.6066C35.9905 23.1924 36.9403 23.1924 37.5261 22.6066L47.072 13.0607ZM2 13.5H46.0114V10.5H2V13.5Z" fill="white"/>
<path d="M46.0114 48.5C46.8398 48.5 47.5114 47.8284 47.5114 47C47.5114 46.1716 46.8398 45.5 46.0114 45.5V48.5ZM0.939327 45.9393C0.353542 46.5251 0.353542 47.4749 0.939327 48.0607L10.4853 57.6066C11.0711 58.1924 12.0208 58.1924 12.6066 57.6066C13.1924 57.0208 13.1924 56.0711 12.6066 55.4853L4.12131 47L12.6066 38.5147C13.1924 37.9289 13.1924 36.9792 12.6066 36.3934C12.0208 35.8076 11.0711 35.8076 10.4853 36.3934L0.939327 45.9393ZM46.0114 45.5L1.99999 45.5V48.5L46.0114 48.5V45.5Z" fill="white"/>
<path d="M46.0114 48.5C46.8398 48.5 47.5114 47.8284 47.5114 47C47.5114 46.1716 46.8398 45.5 46.0114 45.5V48.5ZM0.939327 45.9393C0.353542 46.5251 0.353542 47.4749 0.939327 48.0607L10.4853 57.6066C11.0711 58.1924 12.0208 58.1924 12.6066 57.6066C13.1924 57.0208 13.1924 56.0711 12.6066 55.4853L4.12131 47L12.6066 38.5147C13.1924 37.9289 13.1924 36.9792 12.6066 36.3934C12.0208 35.8076 11.0711 35.8076 10.4853 36.3934L0.939327 45.9393ZM46.0114 45.5L1.99999 45.5V48.5L46.0114 48.5V45.5Z" fill="white"/>
</svg>
