<svg width="100" height="142" viewBox="0 0 100 142" fill="none" xmlns="http://www.w3.org/2000/svg">
<rect y="21" width="100" height="100" rx="10" fill="#00873B"/>
<path fill-rule="evenodd" clip-rule="evenodd" d="M37.1042 45H57.9375C60.2292 45 62.1042 46.875 62.1042 49.1667V86.6667C62.1042 88.9583 60.2292 90.8333 57.9375 90.8333H37.1042C34.8125 90.8333 32.9375 88.9583 32.9375 86.6667V80.4167H37.1042V84.5833H57.9375V51.25H37.1042V55.4167H32.9375V49.1667C32.9375 46.875 34.8125 45 37.1042 45ZM27.6458 65.6667L32.9583 70.9792L45.2708 58.625L47.9167 61.2709L32.9375 76.25L25 68.3125L27.6458 65.6667Z" fill="white"/>
<path d="M27.468 13V4.208L25.97 9.71H24.808L23.31 4.208V13H22.19V3.2H24.164L25.438 8.212L26.698 3.2H28.63V13H27.468ZM36.0484 9.36C36.0484 10.0973 35.9924 10.7087 35.8804 11.194C35.7684 11.67 35.6004 12.0527 35.3764 12.342C35.1524 12.622 34.8724 12.818 34.5364 12.93C34.2097 13.042 33.827 13.098 33.3884 13.098C32.959 13.098 32.5764 13.042 32.2404 12.93C31.9137 12.818 31.6384 12.622 31.4144 12.342C31.1904 12.0527 31.0177 11.67 30.8964 11.194C30.7844 10.7087 30.7284 10.0973 30.7284 9.36C30.7284 8.16533 30.943 7.29267 31.3724 6.742C31.8017 6.182 32.4737 5.902 33.3884 5.902C34.303 5.902 34.975 6.182 35.4044 6.742C35.8337 7.29267 36.0484 8.16533 36.0484 9.36ZM34.8304 9.57C34.8304 9.07533 34.807 8.65533 34.7604 8.31C34.7137 7.96467 34.6344 7.68933 34.5224 7.484C34.4197 7.26933 34.275 7.11533 34.0884 7.022C33.9017 6.92867 33.6684 6.882 33.3884 6.882C33.1084 6.882 32.875 6.92867 32.6884 7.022C32.5017 7.11533 32.3524 7.26933 32.2404 7.484C32.1377 7.68933 32.063 7.96467 32.0164 8.31C31.9697 8.65533 31.9464 9.07533 31.9464 9.57C31.9464 10.4847 32.0537 11.138 32.2684 11.53C32.483 11.922 32.8564 12.118 33.3884 12.118C33.9204 12.118 34.2937 11.922 34.5084 11.53C34.723 11.138 34.8304 10.4847 34.8304 9.57ZM38.0751 13V6H39.0551L39.1531 6.63C39.6104 6.14467 40.1844 5.902 40.8751 5.902C41.2764 5.902 41.6124 5.95333 41.8831 6.056C42.1537 6.14933 42.3684 6.29867 42.5271 6.504C42.6951 6.7 42.8117 6.95667 42.8771 7.274C42.9517 7.582 42.9891 7.95067 42.9891 8.38V13H41.7991V8.24C41.7991 7.80133 41.7244 7.47 41.5751 7.246C41.4351 7.022 41.1317 6.91 40.6651 6.91C40.4691 6.91 40.2824 6.94733 40.1051 7.022C39.9371 7.09667 39.7877 7.19467 39.6571 7.316C39.5357 7.43733 39.4377 7.568 39.3631 7.708C39.2977 7.83867 39.2651 7.96933 39.2651 8.1V13H38.0751ZM46.4871 7.05V11.32C46.4871 11.3853 46.4964 11.4647 46.5151 11.558C46.5338 11.642 46.5664 11.726 46.6131 11.81C46.6691 11.8847 46.7391 11.95 46.8231 12.006C46.9164 12.062 47.0378 12.09 47.1871 12.09C47.4018 12.09 47.5838 12.076 47.7331 12.048C47.8824 12.0107 48.0084 11.978 48.1111 11.95V12.93C48.0178 12.958 47.8544 12.9907 47.6211 13.028C47.3971 13.0747 47.1591 13.098 46.9071 13.098C46.6271 13.098 46.3844 13.0513 46.1791 12.958C45.9738 12.8647 45.8058 12.734 45.6751 12.566C45.5444 12.398 45.4464 12.202 45.3811 11.978C45.3251 11.754 45.2971 11.5113 45.2971 11.25V7.05H44.3871V6H45.2971V4.32H46.4871V6H48.1111V7.05H46.4871ZM54.2192 13C54.1538 13 54.0698 12.9907 53.9672 12.972C53.8738 12.9533 53.7758 12.9207 53.6732 12.874C53.5705 12.8273 53.4725 12.7573 53.3792 12.664C53.2952 12.5707 53.2252 12.454 53.1692 12.314C52.9918 12.566 52.7585 12.762 52.4692 12.902C52.1798 13.0327 51.7972 13.098 51.3212 13.098C51.0692 13.098 50.8172 13.07 50.5652 13.014C50.3132 12.9673 50.0892 12.8693 49.8932 12.72C49.6972 12.5613 49.5385 12.3467 49.4172 12.076C49.2958 11.8053 49.2352 11.4553 49.2352 11.026C49.2352 10.27 49.4545 9.69133 49.8932 9.29C50.3318 8.88867 50.9432 8.688 51.7272 8.688H52.8332V7.932C52.8332 7.63333 52.7445 7.39067 52.5672 7.204C52.3992 7.008 52.1378 6.91 51.7832 6.91C51.3818 6.91 51.0318 6.93333 50.7332 6.98C50.4345 7.02667 50.1078 7.10133 49.7532 7.204V6.182C50.0145 6.10733 50.3085 6.042 50.6352 5.986C50.9618 5.93 51.2978 5.902 51.6432 5.902C52.1005 5.902 52.4785 5.94867 52.7772 6.042C53.0852 6.126 53.3278 6.266 53.5052 6.462C53.6918 6.64867 53.8225 6.88667 53.8972 7.176C53.9812 7.46533 54.0232 7.81067 54.0232 8.212V11.572C54.0232 11.712 54.0698 11.824 54.1632 11.908C54.2565 11.9827 54.4152 12.02 54.6392 12.02V13H54.2192ZM51.6012 12.09C51.8438 12.09 52.0445 12.0527 52.2032 11.978C52.3618 11.9033 52.4878 11.8147 52.5812 11.712C52.6745 11.6 52.7398 11.488 52.7772 11.376C52.8145 11.264 52.8332 11.1753 52.8332 11.11V9.64H51.6572C51.5078 9.64 51.3585 9.66333 51.2092 9.71C51.0692 9.75667 50.9432 9.836 50.8312 9.948C50.7192 10.0507 50.6258 10.186 50.5512 10.354C50.4858 10.5127 50.4532 10.7087 50.4532 10.942C50.4532 11.3807 50.5512 11.684 50.7472 11.852C50.9432 12.0107 51.2278 12.09 51.6012 12.09ZM61.5054 8.45C61.5054 9.24333 61.2721 9.836 60.8054 10.228C60.3481 10.6107 59.6387 10.802 58.6774 10.802C58.3321 10.802 58.0241 10.774 57.7534 10.718C57.6601 10.9233 57.6134 11.124 57.6134 11.32C57.6134 11.4413 57.6367 11.572 57.6834 11.712C58.0007 11.684 58.3134 11.6607 58.6214 11.642C58.9294 11.614 59.2001 11.6 59.4334 11.6C59.7694 11.6 60.0774 11.628 60.3574 11.684C60.6467 11.74 60.8941 11.8473 61.0994 12.006C61.3047 12.1553 61.4634 12.3653 61.5754 12.636C61.6967 12.9067 61.7574 13.2567 61.7574 13.686C61.7574 14.0407 61.6874 14.3393 61.5474 14.582C61.4167 14.834 61.2301 15.0393 60.9874 15.198C60.7541 15.3567 60.4741 15.4733 60.1474 15.548C59.8301 15.6227 59.4847 15.66 59.1114 15.66C58.9341 15.66 58.7194 15.6507 58.4674 15.632C58.2154 15.6133 57.9587 15.59 57.6974 15.562C57.4454 15.5433 57.2027 15.52 56.9694 15.492C56.7454 15.464 56.5681 15.436 56.4374 15.408V14.4C56.6147 14.428 56.8154 14.456 57.0394 14.484C57.2727 14.5213 57.5107 14.5493 57.7534 14.568C58.0054 14.5867 58.2574 14.6007 58.5094 14.61C58.7614 14.6287 58.9994 14.638 59.2234 14.638C59.6994 14.638 60.0354 14.5447 60.2314 14.358C60.4367 14.1807 60.5394 13.9567 60.5394 13.686C60.5394 13.3313 60.4554 13.07 60.2874 12.902C60.1287 12.734 59.8207 12.65 59.3634 12.65C59.2327 12.65 59.0647 12.6547 58.8594 12.664C58.6541 12.6733 58.4394 12.6873 58.2154 12.706C58.0007 12.7153 57.7861 12.7293 57.5714 12.748C57.3661 12.7667 57.1934 12.7853 57.0534 12.804C56.8947 12.6547 56.7547 12.454 56.6334 12.202C56.5214 11.9407 56.4654 11.7027 56.4654 11.488C56.4654 11.208 56.4981 10.9747 56.5634 10.788C56.6287 10.6013 56.7221 10.4427 56.8434 10.312C56.5727 10.1067 56.3814 9.84067 56.2694 9.514C56.1667 9.18733 56.1154 8.79533 56.1154 8.338C56.1154 7.834 56.1947 7.42333 56.3534 7.106C56.5121 6.78867 56.7221 6.54133 56.9834 6.364C57.2541 6.18667 57.5621 6.06533 57.9074 6C58.2621 5.93467 58.6354 5.902 59.0274 5.902C59.4381 5.902 59.8021 5.96733 60.1194 6.098L62.1494 6V7.05L61.1834 7.008C61.3981 7.40933 61.5054 7.89 61.5054 8.45ZM60.3154 8.338C60.3154 8.142 60.2921 7.96 60.2454 7.792C60.2081 7.61467 60.1334 7.46067 60.0214 7.33C59.9094 7.19933 59.7601 7.09667 59.5734 7.022C59.3961 6.938 59.1674 6.896 58.8874 6.896C58.2807 6.896 57.8654 7.022 57.6414 7.274C57.4174 7.51667 57.3054 7.90867 57.3054 8.45C57.3054 8.646 57.3241 8.83267 57.3614 9.01C57.4081 9.178 57.4827 9.32267 57.5854 9.444C57.6881 9.56533 57.8281 9.66333 58.0054 9.738C58.1827 9.80333 58.4067 9.836 58.6774 9.836C58.9107 9.836 59.1254 9.81733 59.3214 9.78C59.5267 9.74267 59.6994 9.67267 59.8394 9.57C59.9887 9.458 60.1054 9.304 60.1894 9.108C60.2734 8.912 60.3154 8.65533 60.3154 8.338ZM64.6762 9.92C64.6855 10.3773 64.7182 10.7507 64.7742 11.04C64.8395 11.32 64.9235 11.5393 65.0262 11.698C65.1288 11.8567 65.2502 11.964 65.3902 12.02C65.5302 12.0667 65.6888 12.09 65.8662 12.09C66.2582 12.09 66.6128 12.0667 66.9302 12.02C67.2568 11.964 67.5275 11.9127 67.7422 11.866V12.874C67.5182 12.9393 67.2335 12.9907 66.8882 13.028C66.5522 13.0747 66.2582 13.098 66.0062 13.098C65.6048 13.098 65.2455 13.056 64.9282 12.972C64.6202 12.888 64.3588 12.72 64.1442 12.468C63.9295 12.216 63.7662 11.8567 63.6542 11.39C63.5422 10.914 63.4862 10.284 63.4862 9.5C63.4862 8.856 63.5375 8.30533 63.6402 7.848C63.7522 7.39067 63.9155 7.01733 64.1302 6.728C64.3448 6.43867 64.6108 6.22867 64.9282 6.098C65.2455 5.96733 65.6142 5.902 66.0342 5.902C66.8368 5.902 67.4108 6.168 67.7562 6.7C68.1108 7.22267 68.2882 7.946 68.2882 8.87V9.92H64.6762ZM66.0062 6.896C65.7822 6.896 65.5908 6.92867 65.4322 6.994C65.2735 7.05933 65.1428 7.17133 65.0402 7.33C64.9375 7.48867 64.8582 7.70333 64.8022 7.974C64.7462 8.23533 64.7088 8.56667 64.6902 8.968H67.1262V8.59C67.1262 8.058 67.0422 7.64267 66.8742 7.344C66.7155 7.04533 66.4262 6.896 66.0062 6.896ZM70.245 13V6H71.225L71.323 6.616C71.7523 6.14 72.2797 5.902 72.905 5.902C73.3437 5.902 73.6937 5.986 73.955 6.154C74.2163 6.31267 74.4217 6.52267 74.571 6.784C75.019 6.196 75.607 5.902 76.335 5.902C77.0537 5.902 77.5577 6.10267 77.847 6.504C78.1457 6.896 78.295 7.52133 78.295 8.38V13H77.105V8.24C77.105 7.792 77.0397 7.46067 76.909 7.246C76.7877 7.022 76.5263 6.91 76.125 6.91C75.9383 6.91 75.7657 6.94733 75.607 7.022C75.4577 7.09667 75.327 7.19467 75.215 7.316C75.103 7.43733 75.0143 7.568 74.949 7.708C74.893 7.83867 74.865 7.96933 74.865 8.1V13H73.675V8.24C73.675 7.792 73.6097 7.46067 73.479 7.246C73.3577 7.022 73.0963 6.91 72.695 6.91C72.5083 6.91 72.3357 6.94733 72.177 7.022C72.0277 7.09667 71.897 7.19467 71.785 7.316C71.673 7.43733 71.5843 7.568 71.519 7.708C71.463 7.83867 71.435 7.96933 71.435 8.1V13H70.245Z" fill="black"/>
</svg>
