<svg width="100" height="142" viewBox="0 0 100 142" fill="none" xmlns="http://www.w3.org/2000/svg">
<rect y="21" width="100" height="100" rx="10" fill="#00873B"/>
<path fill-rule="evenodd" clip-rule="evenodd" d="M49.975 48C36.175 48 25 58.402 25 71.2188C25 84.0356 36.175 94.4376 49.975 94.4376C63.8 94.4376 75 84.0356 75 71.2188C75 58.402 63.8 48 49.975 48ZM41.25 61.9313C39.1789 61.9313 37.5 63.4906 37.5 65.4141C37.5 67.3376 39.1789 68.8969 41.25 68.8969C43.3211 68.8969 45 67.3376 45 65.4141C45 63.4906 43.3211 61.9313 41.25 61.9313ZM58.75 61.9313C56.6789 61.9313 55 63.4906 55 65.4141C55 67.3376 56.6789 68.8969 58.75 68.8969C60.8211 68.8969 62.5 67.3376 62.5 65.4141C62.5 63.4906 60.8211 61.9313 58.75 61.9313ZM41.375 75.8626C43.125 78.6257 46.3 80.5064 50 80.5064C53.7 80.5064 56.9 78.6257 58.625 75.8626H62.8C60.8 80.6225 55.825 83.9892 50 83.9892C44.175 83.9892 39.2 80.6225 37.2 75.8626H41.375ZM30 71.2188C30 81.4815 38.95 89.7938 50 89.7938C61.05 89.7938 70 81.4815 70 71.2188C70 60.9561 61.05 52.6437 50 52.6437C38.95 52.6437 30 60.9561 30 71.2188Z" fill="white"/>
<path d="M18.272 5.958C18.272 6.686 18.1647 7.28333 17.95 7.75C17.7353 8.21667 17.376 8.548 16.872 8.744L18.79 13H17.446L15.654 8.94H14.408V13H13.19V3.2C13.4233 3.18133 13.6707 3.16267 13.932 3.144C14.156 3.12533 14.408 3.116 14.688 3.116C14.9773 3.10667 15.2667 3.102 15.556 3.102C16.088 3.102 16.5267 3.172 16.872 3.312C17.2267 3.44267 17.5067 3.634 17.712 3.886C17.9173 4.138 18.062 4.44133 18.146 4.796C18.23 5.14133 18.272 5.52867 18.272 5.958ZM17.026 6.056C17.026 5.37467 16.9327 4.88 16.746 4.572C16.5593 4.264 16.2187 4.11 15.724 4.11C15.332 4.11 15.0147 4.124 14.772 4.152C14.632 4.17067 14.5107 4.18467 14.408 4.194V7.918H15.724C15.92 7.918 16.0973 7.89467 16.256 7.848C16.4147 7.792 16.55 7.69867 16.662 7.568C16.7833 7.428 16.872 7.23667 16.928 6.994C16.9933 6.75133 17.026 6.43867 17.026 6.056ZM21.3051 9.92C21.3144 10.3773 21.3471 10.7507 21.4031 11.04C21.4684 11.32 21.5524 11.5393 21.6551 11.698C21.7577 11.8567 21.8791 11.964 22.0191 12.02C22.1591 12.0667 22.3177 12.09 22.4951 12.09C22.8871 12.09 23.2417 12.0667 23.5591 12.02C23.8857 11.964 24.1564 11.9127 24.3711 11.866V12.874C24.1471 12.9393 23.8624 12.9907 23.5171 13.028C23.1811 13.0747 22.8871 13.098 22.6351 13.098C22.2337 13.098 21.8744 13.056 21.5571 12.972C21.2491 12.888 20.9877 12.72 20.7731 12.468C20.5584 12.216 20.3951 11.8567 20.2831 11.39C20.1711 10.914 20.1151 10.284 20.1151 9.5C20.1151 8.856 20.1664 8.30533 20.2691 7.848C20.3811 7.39067 20.5444 7.01733 20.7591 6.728C20.9737 6.43867 21.2397 6.22867 21.5571 6.098C21.8744 5.96733 22.2431 5.902 22.6631 5.902C23.4657 5.902 24.0397 6.168 24.3851 6.7C24.7397 7.22267 24.9171 7.946 24.9171 8.87V9.92H21.3051ZM22.6351 6.896C22.4111 6.896 22.2197 6.92867 22.0611 6.994C21.9024 7.05933 21.7717 7.17133 21.6691 7.33C21.5664 7.48867 21.4871 7.70333 21.4311 7.974C21.3751 8.23533 21.3377 8.56667 21.3191 8.968H23.7551V8.59C23.7551 8.058 23.6711 7.64267 23.5031 7.344C23.3444 7.04533 23.0551 6.896 22.6351 6.896ZM30.6399 12.874C30.4159 12.9393 30.1686 12.9907 29.8979 13.028C29.6272 13.0747 29.3659 13.098 29.1139 13.098C28.7126 13.098 28.3579 13.056 28.0499 12.972C27.7419 12.8787 27.4852 12.7013 27.2799 12.44C27.0746 12.1693 26.9206 11.7913 26.8179 11.306C26.7152 10.8113 26.6639 10.1627 26.6639 9.36C26.6639 8.73467 26.7106 8.20267 26.8039 7.764C26.9066 7.32533 27.0559 6.97067 27.2519 6.7C27.4479 6.42 27.6999 6.21933 28.0079 6.098C28.3159 5.96733 28.6799 5.902 29.0999 5.902C29.3332 5.902 29.5946 5.92533 29.8839 5.972C30.1826 6.01867 30.4346 6.06533 30.6399 6.112V7.148C30.3786 7.092 30.1312 7.04533 29.8979 7.008C29.6646 6.97067 29.3706 6.952 29.0159 6.952C28.8106 6.952 28.6379 6.994 28.4979 7.078C28.3579 7.162 28.2412 7.31133 28.1479 7.526C28.0546 7.73133 27.9846 8.00667 27.9379 8.352C27.9006 8.688 27.8819 9.11733 27.8819 9.64C27.8819 10.1627 27.9052 10.5827 27.9519 10.9C28.0079 11.2173 28.0826 11.46 28.1759 11.628C28.2786 11.796 28.3999 11.908 28.5399 11.964C28.6799 12.02 28.8386 12.048 29.0159 12.048C29.3986 12.048 29.7112 12.0247 29.9539 11.978C30.2059 11.9313 30.4346 11.8847 30.6399 11.838V12.874ZM37.5073 9.36C37.5073 10.0973 37.4513 10.7087 37.3393 11.194C37.2273 11.67 37.0593 12.0527 36.8353 12.342C36.6113 12.622 36.3313 12.818 35.9953 12.93C35.6687 13.042 35.286 13.098 34.8473 13.098C34.418 13.098 34.0353 13.042 33.6993 12.93C33.3727 12.818 33.0973 12.622 32.8733 12.342C32.6493 12.0527 32.4767 11.67 32.3553 11.194C32.2433 10.7087 32.1873 10.0973 32.1873 9.36C32.1873 8.16533 32.402 7.29267 32.8313 6.742C33.2607 6.182 33.9327 5.902 34.8473 5.902C35.762 5.902 36.434 6.182 36.8633 6.742C37.2927 7.29267 37.5073 8.16533 37.5073 9.36ZM36.2893 9.57C36.2893 9.07533 36.266 8.65533 36.2193 8.31C36.1727 7.96467 36.0933 7.68933 35.9813 7.484C35.8787 7.26933 35.734 7.11533 35.5473 7.022C35.3607 6.92867 35.1273 6.882 34.8473 6.882C34.5673 6.882 34.334 6.92867 34.1473 7.022C33.9607 7.11533 33.8113 7.26933 33.6993 7.484C33.5967 7.68933 33.522 7.96467 33.4753 8.31C33.4287 8.65533 33.4053 9.07533 33.4053 9.57C33.4053 10.4847 33.5127 11.138 33.7273 11.53C33.942 11.922 34.3153 12.118 34.8473 12.118C35.3793 12.118 35.7527 11.922 35.9673 11.53C36.182 11.138 36.2893 10.4847 36.2893 9.57ZM41.5641 12.93C41.4614 12.9487 41.3401 12.972 41.2001 13C41.0694 13.028 40.9107 13.042 40.7241 13.042C40.5841 13.042 40.4441 13.0187 40.3041 12.972C40.1641 12.9253 40.0381 12.8413 39.9261 12.72C39.8141 12.5987 39.7207 12.4353 39.6461 12.23C39.5714 12.0153 39.5341 11.7493 39.5341 11.432V3.2H40.7241V11.362C40.7241 11.6047 40.7521 11.7773 40.8081 11.88C40.8734 11.9733 40.9994 12.02 41.1861 12.02C41.2607 12.02 41.3307 12.0107 41.3961 11.992C41.4707 11.9733 41.5267 11.9593 41.5641 11.95V12.93ZM43.2391 13V3.2H44.4291V6.518C44.6438 6.322 44.8818 6.17267 45.1431 6.07C45.4138 5.958 45.7125 5.902 46.0391 5.902C46.4405 5.902 46.7765 5.95333 47.0471 6.056C47.3178 6.14933 47.5325 6.29867 47.6911 6.504C47.8591 6.7 47.9758 6.95667 48.0411 7.274C48.1158 7.582 48.1531 7.95067 48.1531 8.38V13H46.9631V8.24C46.9631 7.80133 46.8885 7.47 46.7391 7.246C46.5991 7.022 46.2958 6.91 45.8291 6.91C45.6331 6.91 45.4465 6.94733 45.2691 7.022C45.1011 7.09667 44.9518 7.19467 44.8211 7.316C44.6998 7.43733 44.6018 7.568 44.5271 7.708C44.4618 7.83867 44.4291 7.96933 44.4291 8.1V13H43.2391ZM50.2512 4.46V3.2H51.5812V4.46H50.2512ZM50.3212 13V6H51.5112V13H50.3212ZM53.7528 13V6H54.7328L54.8308 6.616C55.2601 6.14 55.7875 5.902 56.4128 5.902C56.8515 5.902 57.2015 5.986 57.4628 6.154C57.7241 6.31267 57.9295 6.52267 58.0788 6.784C58.5268 6.196 59.1148 5.902 59.8428 5.902C60.5615 5.902 61.0655 6.10267 61.3548 6.504C61.6535 6.896 61.8028 7.52133 61.8028 8.38V13H60.6128V8.24C60.6128 7.792 60.5475 7.46067 60.4168 7.246C60.2955 7.022 60.0341 6.91 59.6328 6.91C59.4461 6.91 59.2735 6.94733 59.1148 7.022C58.9655 7.09667 58.8348 7.19467 58.7228 7.316C58.6108 7.43733 58.5221 7.568 58.4568 7.708C58.4008 7.83867 58.3728 7.96933 58.3728 8.1V13H57.1828V8.24C57.1828 7.792 57.1175 7.46067 56.9868 7.246C56.8655 7.022 56.6041 6.91 56.2028 6.91C56.0161 6.91 55.8435 6.94733 55.6848 7.022C55.5355 7.09667 55.4048 7.19467 55.2928 7.316C55.1808 7.43733 55.0921 7.568 55.0268 7.708C54.9708 7.83867 54.9428 7.96933 54.9428 8.1V13H53.7528ZM64.9594 9.92C64.9687 10.3773 65.0014 10.7507 65.0574 11.04C65.1227 11.32 65.2067 11.5393 65.3094 11.698C65.412 11.8567 65.5334 11.964 65.6734 12.02C65.8134 12.0667 65.972 12.09 66.1494 12.09C66.5414 12.09 66.896 12.0667 67.2134 12.02C67.54 11.964 67.8107 11.9127 68.0254 11.866V12.874C67.8014 12.9393 67.5167 12.9907 67.1714 13.028C66.8354 13.0747 66.5414 13.098 66.2894 13.098C65.888 13.098 65.5287 13.056 65.2114 12.972C64.9034 12.888 64.642 12.72 64.4274 12.468C64.2127 12.216 64.0494 11.8567 63.9374 11.39C63.8254 10.914 63.7694 10.284 63.7694 9.5C63.7694 8.856 63.8207 8.30533 63.9234 7.848C64.0354 7.39067 64.1987 7.01733 64.4134 6.728C64.628 6.43867 64.894 6.22867 65.2114 6.098C65.5287 5.96733 65.8974 5.902 66.3174 5.902C67.12 5.902 67.694 6.168 68.0394 6.7C68.394 7.22267 68.5714 7.946 68.5714 8.87V9.92H64.9594ZM66.2894 6.896C66.0654 6.896 65.874 6.92867 65.7154 6.994C65.5567 7.05933 65.426 7.17133 65.3234 7.33C65.2207 7.48867 65.1414 7.70333 65.0854 7.974C65.0294 8.23533 64.992 8.56667 64.9734 8.968H67.4094V8.59C67.4094 8.058 67.3254 7.64267 67.1574 7.344C66.9987 7.04533 66.7094 6.896 66.2894 6.896ZM70.5282 13V6H71.5082L71.6062 6.63C72.0635 6.14467 72.6375 5.902 73.3282 5.902C73.7295 5.902 74.0655 5.95333 74.3362 6.056C74.6069 6.14933 74.8215 6.29867 74.9802 6.504C75.1482 6.7 75.2649 6.95667 75.3302 7.274C75.4049 7.582 75.4422 7.95067 75.4422 8.38V13H74.2522V8.24C74.2522 7.80133 74.1775 7.47 74.0282 7.246C73.8882 7.022 73.5849 6.91 73.1182 6.91C72.9222 6.91 72.7355 6.94733 72.5582 7.022C72.3902 7.09667 72.2409 7.19467 72.1102 7.316C71.9889 7.43733 71.8909 7.568 71.8162 7.708C71.7509 7.83867 71.7182 7.96933 71.7182 8.1V13H70.5282ZM78.9402 7.05V11.32C78.9402 11.3853 78.9496 11.4647 78.9682 11.558C78.9869 11.642 79.0196 11.726 79.0662 11.81C79.1222 11.8847 79.1922 11.95 79.2762 12.006C79.3696 12.062 79.4909 12.09 79.6402 12.09C79.8549 12.09 80.0369 12.076 80.1862 12.048C80.3356 12.0107 80.4616 11.978 80.5642 11.95V12.93C80.4709 12.958 80.3076 12.9907 80.0742 13.028C79.8502 13.0747 79.6122 13.098 79.3602 13.098C79.0802 13.098 78.8376 13.0513 78.6322 12.958C78.4269 12.8647 78.2589 12.734 78.1282 12.566C77.9976 12.398 77.8996 12.202 77.8342 11.978C77.7782 11.754 77.7502 11.5113 77.7502 11.25V7.05H76.8402V6H77.7502V4.32H78.9402V6H80.5642V7.05H78.9402ZM87.2183 9.36C87.2183 10.0973 87.1623 10.7087 87.0503 11.194C86.9383 11.67 86.7703 12.0527 86.5463 12.342C86.3223 12.622 86.0423 12.818 85.7063 12.93C85.3796 13.042 84.9969 13.098 84.5583 13.098C84.1289 13.098 83.7463 13.042 83.4103 12.93C83.0836 12.818 82.8083 12.622 82.5843 12.342C82.3603 12.0527 82.1876 11.67 82.0663 11.194C81.9543 10.7087 81.8983 10.0973 81.8983 9.36C81.8983 8.16533 82.1129 7.29267 82.5423 6.742C82.9716 6.182 83.6436 5.902 84.5583 5.902C85.4729 5.902 86.1449 6.182 86.5743 6.742C87.0036 7.29267 87.2183 8.16533 87.2183 9.36ZM86.0003 9.57C86.0003 9.07533 85.9769 8.65533 85.9303 8.31C85.8836 7.96467 85.8043 7.68933 85.6923 7.484C85.5896 7.26933 85.4449 7.11533 85.2583 7.022C85.0716 6.92867 84.8383 6.882 84.5583 6.882C84.2783 6.882 84.0449 6.92867 83.8583 7.022C83.6716 7.11533 83.5223 7.26933 83.4103 7.484C83.3076 7.68933 83.2329 7.96467 83.1863 8.31C83.1396 8.65533 83.1163 9.07533 83.1163 9.57C83.1163 10.4847 83.2236 11.138 83.4383 11.53C83.6529 11.922 84.0263 12.118 84.5583 12.118C85.0903 12.118 85.4636 11.922 85.6783 11.53C85.8929 11.138 86.0003 10.4847 86.0003 9.57Z" fill="black"/>
</svg>
