<svg width="50" height="47" viewBox="0 0 50 47" fill="none" xmlns="http://www.w3.org/2000/svg">
<path fill-rule="evenodd" clip-rule="evenodd" d="M24.975 0C11.175 0 0 10.402 0 23.2188C0 36.0356 11.175 46.4376 24.975 46.4376C38.8 46.4376 50 36.0356 50 23.2188C50 10.402 38.8 0 24.975 0ZM16.25 13.9313C14.1789 13.9313 12.5 15.4906 12.5 17.4141C12.5 19.3376 14.1789 20.8969 16.25 20.8969C18.3211 20.8969 20 19.3376 20 17.4141C20 15.4906 18.3211 13.9313 16.25 13.9313ZM33.75 13.9313C31.6789 13.9313 30 15.4906 30 17.4141C30 19.3376 31.6789 20.8969 33.75 20.8969C35.8211 20.8969 37.5 19.3376 37.5 17.4141C37.5 15.4906 35.8211 13.9313 33.75 13.9313ZM16.375 27.8626C18.125 30.6257 21.3 32.5064 25 32.5064C28.7 32.5064 31.9 30.6257 33.625 27.8626H37.8C35.8 32.6225 30.825 35.9892 25 35.9892C19.175 35.9892 14.2 32.6225 12.2 27.8626H16.375ZM5 23.2188C5 33.4815 13.95 41.7938 25 41.7938C36.05 41.7938 45 33.4815 45 23.2188C45 12.9561 36.05 4.64374 25 4.64374C13.95 4.64374 5 12.9561 5 23.2188Z" fill="white"/>
</svg>
