<svg width="100" height="142" viewBox="0 0 100 142" fill="none" xmlns="http://www.w3.org/2000/svg">
<rect y="21" width="100" height="100" rx="10" fill="#00873B"/>
<path d="M38.45 133.05V137.32C38.45 137.385 38.4593 137.465 38.478 137.558C38.4967 137.642 38.5293 137.726 38.576 137.81C38.632 137.885 38.702 137.95 38.786 138.006C38.8793 138.062 39.0007 138.09 39.15 138.09C39.3647 138.09 39.5467 138.076 39.696 138.048C39.8453 138.011 39.9713 137.978 40.074 137.95V138.93C39.9807 138.958 39.8173 138.991 39.584 139.028C39.36 139.075 39.122 139.098 38.87 139.098C38.59 139.098 38.3473 139.051 38.142 138.958C37.9367 138.865 37.7687 138.734 37.638 138.566C37.5073 138.398 37.4093 138.202 37.344 137.978C37.288 137.754 37.26 137.511 37.26 137.25V133.05H36.35V132H37.26V130.32H38.45V132H40.074V133.05H38.45ZM41.618 139V132H42.598L42.682 132.714C42.8407 132.471 43.0367 132.275 43.27 132.126C43.5034 131.977 43.7927 131.902 44.138 131.902C44.306 131.902 44.4507 131.911 44.572 131.93C44.6934 131.939 44.796 131.953 44.88 131.972V133.218C44.7587 133.19 44.6187 133.162 44.46 133.134C44.3107 133.106 44.1707 133.092 44.04 133.092C43.8067 133.092 43.6107 133.139 43.452 133.232C43.3027 133.325 43.1767 133.451 43.074 133.61C42.9807 133.759 42.9107 133.932 42.864 134.128C42.8267 134.315 42.808 134.501 42.808 134.688V139H41.618ZM51.2534 135.36C51.2534 136.097 51.1974 136.709 51.0854 137.194C50.9734 137.67 50.8054 138.053 50.5814 138.342C50.3574 138.622 50.0774 138.818 49.7414 138.93C49.4148 139.042 49.0321 139.098 48.5934 139.098C48.1641 139.098 47.7814 139.042 47.4454 138.93C47.1188 138.818 46.8434 138.622 46.6194 138.342C46.3954 138.053 46.2228 137.67 46.1014 137.194C45.9894 136.709 45.9334 136.097 45.9334 135.36C45.9334 134.165 46.1481 133.293 46.5774 132.742C47.0068 132.182 47.6788 131.902 48.5934 131.902C49.5081 131.902 50.1801 132.182 50.6094 132.742C51.0388 133.293 51.2534 134.165 51.2534 135.36ZM50.0354 135.57C50.0354 135.075 50.0121 134.655 49.9654 134.31C49.9188 133.965 49.8394 133.689 49.7274 133.484C49.6248 133.269 49.4801 133.115 49.2934 133.022C49.1068 132.929 48.8734 132.882 48.5934 132.882C48.3134 132.882 48.0801 132.929 47.8934 133.022C47.7068 133.115 47.5574 133.269 47.4454 133.484C47.3428 133.689 47.2681 133.965 47.2214 134.31C47.1748 134.655 47.1514 135.075 47.1514 135.57C47.1514 136.485 47.2588 137.138 47.4734 137.53C47.6881 137.922 48.0614 138.118 48.5934 138.118C49.1254 138.118 49.4988 137.922 49.7134 137.53C49.9281 137.138 50.0354 136.485 50.0354 135.57ZM57.0462 138.874C56.8222 138.939 56.5748 138.991 56.3042 139.028C56.0335 139.075 55.7722 139.098 55.5202 139.098C55.1188 139.098 54.7642 139.056 54.4562 138.972C54.1482 138.879 53.8915 138.701 53.6862 138.44C53.4808 138.169 53.3268 137.791 53.2242 137.306C53.1215 136.811 53.0702 136.163 53.0702 135.36C53.0702 134.735 53.1168 134.203 53.2102 133.764C53.3128 133.325 53.4622 132.971 53.6582 132.7C53.8542 132.42 54.1062 132.219 54.4142 132.098C54.7222 131.967 55.0862 131.902 55.5062 131.902C55.7395 131.902 56.0008 131.925 56.2902 131.972C56.5888 132.019 56.8408 132.065 57.0462 132.112V133.148C56.7848 133.092 56.5375 133.045 56.3042 133.008C56.0708 132.971 55.7768 132.952 55.4222 132.952C55.2168 132.952 55.0442 132.994 54.9042 133.078C54.7642 133.162 54.6475 133.311 54.5542 133.526C54.4608 133.731 54.3908 134.007 54.3442 134.352C54.3068 134.688 54.2882 135.117 54.2882 135.64C54.2882 136.163 54.3115 136.583 54.3582 136.9C54.4142 137.217 54.4888 137.46 54.5822 137.628C54.6848 137.796 54.8062 137.908 54.9462 137.964C55.0862 138.02 55.2448 138.048 55.4222 138.048C55.8048 138.048 56.1175 138.025 56.3602 137.978C56.6122 137.931 56.8408 137.885 57.0462 137.838V138.874ZM63.5043 139C63.439 139 63.355 138.991 63.2523 138.972C63.159 138.953 63.061 138.921 62.9583 138.874C62.8556 138.827 62.7576 138.757 62.6643 138.664C62.5803 138.571 62.5103 138.454 62.4543 138.314C62.277 138.566 62.0436 138.762 61.7543 138.902C61.465 139.033 61.0823 139.098 60.6063 139.098C60.3543 139.098 60.1023 139.07 59.8503 139.014C59.5983 138.967 59.3743 138.869 59.1783 138.72C58.9823 138.561 58.8236 138.347 58.7023 138.076C58.581 137.805 58.5203 137.455 58.5203 137.026C58.5203 136.27 58.7396 135.691 59.1783 135.29C59.617 134.889 60.2283 134.688 61.0123 134.688H62.1183V133.932C62.1183 133.633 62.0296 133.391 61.8523 133.204C61.6843 133.008 61.423 132.91 61.0683 132.91C60.667 132.91 60.317 132.933 60.0183 132.98C59.7196 133.027 59.393 133.101 59.0383 133.204V132.182C59.2996 132.107 59.5936 132.042 59.9203 131.986C60.247 131.93 60.583 131.902 60.9283 131.902C61.3856 131.902 61.7636 131.949 62.0623 132.042C62.3703 132.126 62.613 132.266 62.7903 132.462C62.977 132.649 63.1076 132.887 63.1823 133.176C63.2663 133.465 63.3083 133.811 63.3083 134.212V137.572C63.3083 137.712 63.355 137.824 63.4483 137.908C63.5416 137.983 63.7003 138.02 63.9243 138.02V139H63.5043ZM60.8863 138.09C61.129 138.09 61.3296 138.053 61.4883 137.978C61.647 137.903 61.773 137.815 61.8663 137.712C61.9596 137.6 62.025 137.488 62.0623 137.376C62.0996 137.264 62.1183 137.175 62.1183 137.11V135.64H60.9423C60.793 135.64 60.6436 135.663 60.4943 135.71C60.3543 135.757 60.2283 135.836 60.1163 135.948C60.0043 136.051 59.911 136.186 59.8363 136.354C59.771 136.513 59.7383 136.709 59.7383 136.942C59.7383 137.381 59.8363 137.684 60.0323 137.852C60.2283 138.011 60.513 138.09 60.8863 138.09Z" fill="black"/>
<path d="M25.334 10.214C25.334 10.7927 25.2687 11.2687 25.138 11.642C25.0073 12.0153 24.8207 12.3093 24.578 12.524C24.3353 12.7387 24.0413 12.888 23.696 12.972C23.36 13.056 22.982 13.098 22.562 13.098C22.338 13.098 22.072 13.0793 21.764 13.042C21.456 13.0047 21.1807 12.9533 20.938 12.888V11.866C21.1527 11.922 21.4047 11.9733 21.694 12.02C21.9833 12.0573 22.3193 12.076 22.702 12.076C23.1873 12.076 23.5373 11.936 23.752 11.656C23.976 11.376 24.088 10.942 24.088 10.354C24.088 10.018 24.0647 9.738 24.018 9.514C23.9713 9.28067 23.9013 9.094 23.808 8.954C23.7147 8.80467 23.5933 8.69267 23.444 8.618C23.304 8.54333 23.1407 8.48733 22.954 8.45C22.562 8.366 22.2307 8.25867 21.96 8.128C21.6893 7.99733 21.47 7.82933 21.302 7.624C21.134 7.41867 21.008 7.16667 20.924 6.868C20.8493 6.56933 20.812 6.21467 20.812 5.804C20.812 5.3 20.8773 4.88 21.008 4.544C21.148 4.19867 21.3393 3.91867 21.582 3.704C21.834 3.48933 22.128 3.33533 22.464 3.242C22.8 3.14867 23.1687 3.102 23.57 3.102C23.8033 3.102 24.0553 3.12533 24.326 3.172C24.606 3.20933 24.8487 3.256 25.054 3.312V4.334C24.8113 4.278 24.5407 4.23133 24.242 4.194C23.9433 4.14733 23.6727 4.124 23.43 4.124C23.2527 4.124 23.08 4.152 22.912 4.208C22.7533 4.264 22.6087 4.35267 22.478 4.474C22.3567 4.59533 22.254 4.754 22.17 4.95C22.0953 5.13667 22.058 5.37 22.058 5.65C22.058 5.93 22.072 6.168 22.1 6.364C22.128 6.55067 22.1793 6.70467 22.254 6.826C22.338 6.94733 22.45 7.04533 22.59 7.12C22.73 7.18533 22.912 7.24133 23.136 7.288C23.472 7.35333 23.7753 7.44667 24.046 7.568C24.3167 7.68933 24.5453 7.862 24.732 8.086C24.928 8.30067 25.0773 8.58067 25.18 8.926C25.2827 9.27133 25.334 9.70067 25.334 10.214ZM27.1203 4.46V3.2H28.4503V4.46H27.1203ZM27.1903 13V6H28.3803V13H27.1903ZM34.43 10.97C34.43 11.7447 34.2153 12.2953 33.786 12.622C33.366 12.9393 32.7966 13.098 32.078 13.098C31.6766 13.098 31.336 13.07 31.056 13.014C30.776 12.9673 30.5566 12.9207 30.398 12.874V11.852C30.482 11.8707 30.5893 11.894 30.72 11.922C30.86 11.9407 31.0093 11.964 31.168 11.992C31.3266 12.0107 31.49 12.0293 31.658 12.048C31.8353 12.0667 32.008 12.076 32.176 12.076C32.3626 12.076 32.5166 12.048 32.638 11.992C32.7686 11.9267 32.8713 11.8473 32.946 11.754C33.03 11.6513 33.0906 11.5393 33.128 11.418C33.1653 11.2873 33.184 11.1613 33.184 11.04C33.184 10.704 33.1233 10.4567 33.002 10.298C32.89 10.1393 32.6566 10.0273 32.302 9.962C31.5833 9.83133 31.0746 9.60733 30.776 9.29C30.4866 8.96333 30.342 8.53867 30.342 8.016C30.342 7.63333 30.4026 7.31133 30.524 7.05C30.6453 6.77933 30.8086 6.56 31.014 6.392C31.2286 6.224 31.476 6.10267 31.756 6.028C32.0453 5.944 32.358 5.902 32.694 5.902C33.058 5.902 33.3613 5.93467 33.604 6C33.856 6.056 34.052 6.10267 34.192 6.14V7.162C33.9493 7.106 33.716 7.05 33.492 6.994C33.268 6.938 32.9646 6.91 32.582 6.91C32.3673 6.91 32.19 6.94267 32.05 7.008C31.9193 7.064 31.8166 7.14333 31.742 7.246C31.6673 7.33933 31.616 7.44667 31.588 7.568C31.5693 7.68933 31.56 7.81533 31.56 7.946C31.56 8.45933 31.8586 8.76267 32.456 8.856C33.184 8.97733 33.6926 9.206 33.982 9.542C34.2806 9.878 34.43 10.354 34.43 10.97ZM37.5848 7.05V11.32C37.5848 11.3853 37.5941 11.4647 37.6128 11.558C37.6314 11.642 37.6641 11.726 37.7108 11.81C37.7668 11.8847 37.8368 11.95 37.9208 12.006C38.0141 12.062 38.1354 12.09 38.2848 12.09C38.4994 12.09 38.6814 12.076 38.8308 12.048C38.9801 12.0107 39.1061 11.978 39.2088 11.95V12.93C39.1154 12.958 38.9521 12.9907 38.7188 13.028C38.4948 13.0747 38.2568 13.098 38.0048 13.098C37.7248 13.098 37.4821 13.0513 37.2768 12.958C37.0714 12.8647 36.9034 12.734 36.7728 12.566C36.6421 12.398 36.5441 12.202 36.4788 11.978C36.4228 11.754 36.3948 11.5113 36.3948 11.25V7.05H35.4848V6H36.3948V4.32H37.5848V6H39.2088V7.05H37.5848ZM41.7328 9.92C41.7421 10.3773 41.7748 10.7507 41.8308 11.04C41.8961 11.32 41.9801 11.5393 42.0828 11.698C42.1855 11.8567 42.3068 11.964 42.4468 12.02C42.5868 12.0667 42.7455 12.09 42.9228 12.09C43.3148 12.09 43.6695 12.0667 43.9868 12.02C44.3135 11.964 44.5841 11.9127 44.7988 11.866V12.874C44.5748 12.9393 44.2901 12.9907 43.9448 13.028C43.6088 13.0747 43.3148 13.098 43.0628 13.098C42.6615 13.098 42.3021 13.056 41.9848 12.972C41.6768 12.888 41.4155 12.72 41.2008 12.468C40.9861 12.216 40.8228 11.8567 40.7108 11.39C40.5988 10.914 40.5428 10.284 40.5428 9.5C40.5428 8.856 40.5941 8.30533 40.6968 7.848C40.8088 7.39067 40.9721 7.01733 41.1868 6.728C41.4015 6.43867 41.6675 6.22867 41.9848 6.098C42.3021 5.96733 42.6708 5.902 43.0908 5.902C43.8935 5.902 44.4675 6.168 44.8128 6.7C45.1675 7.22267 45.3448 7.946 45.3448 8.87V9.92H41.7328ZM43.0628 6.896C42.8388 6.896 42.6475 6.92867 42.4888 6.994C42.3301 7.05933 42.1995 7.17133 42.0968 7.33C41.9941 7.48867 41.9148 7.70333 41.8588 7.974C41.8028 8.23533 41.7655 8.56667 41.7468 8.968H44.1828V8.59C44.1828 8.058 44.0988 7.64267 43.9308 7.344C43.7721 7.04533 43.4828 6.896 43.0628 6.896ZM47.3016 13V6H48.2816L48.3796 6.616C48.809 6.14 49.3363 5.902 49.9616 5.902C50.4003 5.902 50.7503 5.986 51.0116 6.154C51.273 6.31267 51.4783 6.52267 51.6276 6.784C52.0756 6.196 52.6636 5.902 53.3916 5.902C54.1103 5.902 54.6143 6.10267 54.9036 6.504C55.2023 6.896 55.3516 7.52133 55.3516 8.38V13H54.1616V8.24C54.1616 7.792 54.0963 7.46067 53.9656 7.246C53.8443 7.022 53.583 6.91 53.1816 6.91C52.995 6.91 52.8223 6.94733 52.6636 7.022C52.5143 7.09667 52.3836 7.19467 52.2716 7.316C52.1596 7.43733 52.071 7.568 52.0056 7.708C51.9496 7.83867 51.9216 7.96933 51.9216 8.1V13H50.7316V8.24C50.7316 7.792 50.6663 7.46067 50.5356 7.246C50.4143 7.022 50.153 6.91 49.7516 6.91C49.565 6.91 49.3923 6.94733 49.2336 7.022C49.0843 7.09667 48.9536 7.19467 48.8416 7.316C48.7296 7.43733 48.641 7.568 48.5756 7.708C48.5196 7.83867 48.4916 7.96933 48.4916 8.1V13H47.3016ZM62.0922 13C62.0269 13 61.9429 12.9907 61.8402 12.972C61.7469 12.9533 61.6489 12.9207 61.5462 12.874C61.4435 12.8273 61.3455 12.7573 61.2522 12.664C61.1682 12.5707 61.0982 12.454 61.0422 12.314C60.8649 12.566 60.6315 12.762 60.3422 12.902C60.0529 13.0327 59.6702 13.098 59.1942 13.098C58.9422 13.098 58.6902 13.07 58.4382 13.014C58.1862 12.9673 57.9622 12.8693 57.7662 12.72C57.5702 12.5613 57.4115 12.3467 57.2902 12.076C57.1689 11.8053 57.1082 11.4553 57.1082 11.026C57.1082 10.27 57.3275 9.69133 57.7662 9.29C58.2049 8.88867 58.8162 8.688 59.6002 8.688H60.7062V7.932C60.7062 7.63333 60.6175 7.39067 60.4402 7.204C60.2722 7.008 60.0109 6.91 59.6562 6.91C59.2549 6.91 58.9049 6.93333 58.6062 6.98C58.3075 7.02667 57.9809 7.10133 57.6262 7.204V6.182C57.8875 6.10733 58.1815 6.042 58.5082 5.986C58.8349 5.93 59.1709 5.902 59.5162 5.902C59.9735 5.902 60.3515 5.94867 60.6502 6.042C60.9582 6.126 61.2009 6.266 61.3782 6.462C61.5649 6.64867 61.6955 6.88667 61.7702 7.176C61.8542 7.46533 61.8962 7.81067 61.8962 8.212V11.572C61.8962 11.712 61.9429 11.824 62.0362 11.908C62.1295 11.9827 62.2882 12.02 62.5122 12.02V13H62.0922ZM59.4742 12.09C59.7169 12.09 59.9175 12.0527 60.0762 11.978C60.2349 11.9033 60.3609 11.8147 60.4542 11.712C60.5475 11.6 60.6129 11.488 60.6502 11.376C60.6875 11.264 60.7062 11.1753 60.7062 11.11V9.64H59.5302C59.3809 9.64 59.2315 9.66333 59.0822 9.71C58.9422 9.75667 58.8162 9.836 58.7042 9.948C58.5922 10.0507 58.4989 10.186 58.4242 10.354C58.3589 10.5127 58.3262 10.7087 58.3262 10.942C58.3262 11.3807 58.4242 11.684 58.6202 11.852C58.8162 12.0107 59.1009 12.09 59.4742 12.09ZM71.7412 13L71.6432 12.412C71.4285 12.6267 71.1858 12.7947 70.9152 12.916C70.6445 13.0373 70.3318 13.098 69.9772 13.098C69.5292 13.098 69.1605 13.028 68.8712 12.888C68.5818 12.748 68.3485 12.5427 68.1712 12.272C67.9938 12.0013 67.8678 11.6607 67.7932 11.25C67.7278 10.83 67.6952 10.3493 67.6952 9.808C67.6952 8.42667 67.9332 7.43267 68.4092 6.826C68.8945 6.21 69.6738 5.902 70.7472 5.902C70.9058 5.902 71.0505 5.90667 71.1812 5.916C71.3118 5.92533 71.4285 5.93933 71.5312 5.958V3.2H72.7212V13H71.7412ZM70.2012 12.09C70.4158 12.09 70.6072 12.0527 70.7752 11.978C70.9432 11.9033 71.0832 11.8053 71.1952 11.684C71.3072 11.5627 71.3912 11.432 71.4472 11.292C71.5032 11.152 71.5312 11.0213 71.5312 10.9V6.966C71.4285 6.94733 71.3025 6.93333 71.1532 6.924C71.0038 6.91467 70.8218 6.91 70.6072 6.91C70.2712 6.91 69.9958 6.98 69.7812 7.12C69.5665 7.25067 69.3938 7.44667 69.2632 7.708C69.1325 7.96 69.0392 8.27733 68.9832 8.66C68.9365 9.03333 68.9132 9.46267 68.9132 9.948C68.9132 10.368 68.9365 10.718 68.9832 10.998C69.0392 11.2687 69.1185 11.488 69.2212 11.656C69.3238 11.8147 69.4545 11.9267 69.6132 11.992C69.7812 12.0573 69.9772 12.09 70.2012 12.09ZM75.9398 9.92C75.9492 10.3773 75.9818 10.7507 76.0378 11.04C76.1032 11.32 76.1872 11.5393 76.2898 11.698C76.3925 11.8567 76.5138 11.964 76.6538 12.02C76.7938 12.0667 76.9525 12.09 77.1298 12.09C77.5218 12.09 77.8765 12.0667 78.1938 12.02C78.5205 11.964 78.7912 11.9127 79.0058 11.866V12.874C78.7818 12.9393 78.4972 12.9907 78.1518 13.028C77.8158 13.0747 77.5218 13.098 77.2698 13.098C76.8685 13.098 76.5092 13.056 76.1918 12.972C75.8838 12.888 75.6225 12.72 75.4078 12.468C75.1932 12.216 75.0298 11.8567 74.9178 11.39C74.8058 10.914 74.7498 10.284 74.7498 9.5C74.7498 8.856 74.8012 8.30533 74.9038 7.848C75.0158 7.39067 75.1792 7.01733 75.3938 6.728C75.6085 6.43867 75.8745 6.22867 76.1918 6.098C76.5092 5.96733 76.8778 5.902 77.2978 5.902C78.1005 5.902 78.6745 6.168 79.0198 6.7C79.3745 7.22267 79.5518 7.946 79.5518 8.87V9.92H75.9398ZM77.2698 6.896C77.0458 6.896 76.8545 6.92867 76.6958 6.994C76.5372 7.05933 76.4065 7.17133 76.3038 7.33C76.2012 7.48867 76.1218 7.70333 76.0658 7.974C76.0098 8.23533 75.9725 8.56667 75.9538 8.968H78.3898V8.59C78.3898 8.058 78.3058 7.64267 78.1378 7.344C77.9792 7.04533 77.6898 6.896 77.2698 6.896Z" fill="black"/>
<path d="M28 51.5C27.1716 51.5 26.5 52.1716 26.5 53C26.5 53.8284 27.1716 54.5 28 54.5V51.5ZM73.072 54.0607C73.6578 53.4749 73.6578 52.5251 73.072 51.9393L63.5261 42.3934C62.9403 41.8076 61.9905 41.8076 61.4048 42.3934C60.819 42.9792 60.819 43.9289 61.4048 44.5147L69.89 53L61.4048 61.4853C60.819 62.0711 60.819 63.0208 61.4048 63.6066C61.9905 64.1924 62.9403 64.1924 63.5261 63.6066L73.072 54.0607ZM28 54.5H72.0114V51.5H28V54.5Z" fill="white"/>
<path d="M28 51.5C27.1716 51.5 26.5 52.1716 26.5 53C26.5 53.8284 27.1716 54.5 28 54.5V51.5ZM73.072 54.0607C73.6578 53.4749 73.6578 52.5251 73.072 51.9393L63.5261 42.3934C62.9403 41.8076 61.9905 41.8076 61.4048 42.3934C60.819 42.9792 60.819 43.9289 61.4048 44.5147L69.89 53L61.4048 61.4853C60.819 62.0711 60.819 63.0208 61.4048 63.6066C61.9905 64.1924 62.9403 64.1924 63.5261 63.6066L73.072 54.0607ZM28 54.5H72.0114V51.5H28V54.5Z" fill="white"/>
<path d="M72.0114 89.5C72.8398 89.5 73.5114 88.8284 73.5114 88C73.5114 87.1716 72.8398 86.5 72.0114 86.5V89.5ZM26.9393 86.9393C26.3535 87.5251 26.3535 88.4749 26.9393 89.0607L36.4853 98.6066C37.0711 99.1924 38.0208 99.1924 38.6066 98.6066C39.1924 98.0208 39.1924 97.0711 38.6066 96.4853L30.1213 88L38.6066 79.5147C39.1924 78.9289 39.1924 77.9792 38.6066 77.3934C38.0208 76.8076 37.0711 76.8076 36.4853 77.3934L26.9393 86.9393ZM72.0114 86.5H28V89.5H72.0114V86.5Z" fill="white"/>
<path d="M72.0114 89.5C72.8398 89.5 73.5114 88.8284 73.5114 88C73.5114 87.1716 72.8398 86.5 72.0114 86.5V89.5ZM26.9393 86.9393C26.3535 87.5251 26.3535 88.4749 26.9393 89.0607L36.4853 98.6066C37.0711 99.1924 38.0208 99.1924 38.6066 98.6066C39.1924 98.0208 39.1924 97.0711 38.6066 96.4853L30.1213 88L38.6066 79.5147C39.1924 78.9289 39.1924 77.9792 38.6066 77.3934C38.0208 76.8076 37.0711 76.8076 36.4853 77.3934L26.9393 86.9393ZM72.0114 86.5H28V89.5H72.0114V86.5Z" fill="white"/>
</svg>
