<svg width="100" height="142" viewBox="0 0 100 142" fill="none" xmlns="http://www.w3.org/2000/svg">
<rect y="21" width="100" height="100" rx="10" fill="#00873B"/>
<path fill-rule="evenodd" clip-rule="evenodd" d="M50 49.1667C38.5 49.1667 29.1667 58.5001 29.1667 70.0001C29.1667 81.5001 38.5 90.8334 50 90.8334C61.5 90.8334 70.8333 81.5001 70.8333 70.0001C70.8333 58.5001 61.5 49.1667 50 49.1667ZM50 86.6667C40.8125 86.6667 33.3333 79.1876 33.3333 70.0001C33.3333 60.8126 40.8125 53.3334 50 53.3334C59.1875 53.3334 66.6667 60.8126 66.6667 70.0001C66.6667 79.1876 59.1875 86.6667 50 86.6667ZM45.7708 64.7292C45.7708 66.2501 46.9583 67.2709 50.6458 68.2084C54.3125 69.1667 58.25 70.7501 58.2708 75.3334C58.25 78.6876 55.75 80.5001 52.5833 81.1042V84.5834H47.7083V81.0417C44.5833 80.3959 41.9583 78.3959 41.75 74.8542H45.3333C45.5208 76.7709 46.8333 78.2709 50.1667 78.2709C53.7292 78.2709 54.5417 76.4792 54.5417 75.3751C54.5417 73.8751 53.7292 72.4376 49.6667 71.4792C45.1458 70.3959 42.0417 68.5209 42.0417 64.7917C42.0417 61.6459 44.5625 59.6042 47.7083 58.9376V55.4167H52.5625V58.9792C55.9375 59.8126 57.6458 62.3751 57.75 65.1667H54.1875C54.1042 63.1251 53.0208 61.7501 50.1458 61.7501C47.4167 61.7501 45.7708 62.9792 45.7708 64.7292Z" fill="white"/>
<path d="M37.074 13H35.408L33.49 3.2H34.722L36.262 11.768L37.928 3.2H39.132L37.074 13ZM41.2934 9.92C41.3027 10.3773 41.3354 10.7507 41.3914 11.04C41.4567 11.32 41.5407 11.5393 41.6434 11.698C41.746 11.8567 41.8674 11.964 42.0074 12.02C42.1474 12.0667 42.306 12.09 42.4834 12.09C42.8754 12.09 43.23 12.0667 43.5474 12.02C43.874 11.964 44.1447 11.9127 44.3594 11.866V12.874C44.1354 12.9393 43.8507 12.9907 43.5054 13.028C43.1694 13.0747 42.8754 13.098 42.6234 13.098C42.222 13.098 41.8627 13.056 41.5454 12.972C41.2374 12.888 40.976 12.72 40.7614 12.468C40.5467 12.216 40.3834 11.8567 40.2714 11.39C40.1594 10.914 40.1034 10.284 40.1034 9.5C40.1034 8.856 40.1547 8.30533 40.2574 7.848C40.3694 7.39067 40.5327 7.01733 40.7474 6.728C40.962 6.43867 41.228 6.22867 41.5454 6.098C41.8627 5.96733 42.2314 5.902 42.6514 5.902C43.454 5.902 44.028 6.168 44.3734 6.7C44.728 7.22267 44.9054 7.946 44.9054 8.87V9.92H41.2934ZM42.6234 6.896C42.3994 6.896 42.208 6.92867 42.0494 6.994C41.8907 7.05933 41.76 7.17133 41.6574 7.33C41.5547 7.48867 41.4754 7.70333 41.4194 7.974C41.3634 8.23533 41.326 8.56667 41.3074 8.968H43.7434V8.59C43.7434 8.058 43.6594 7.64267 43.4914 7.344C43.3327 7.04533 43.0434 6.896 42.6234 6.896ZM46.8622 13V6H47.8422L47.9402 6.63C48.3975 6.14467 48.9715 5.902 49.6622 5.902C50.0635 5.902 50.3995 5.95333 50.6702 6.056C50.9409 6.14933 51.1555 6.29867 51.3142 6.504C51.4822 6.7 51.5989 6.95667 51.6642 7.274C51.7389 7.582 51.7762 7.95067 51.7762 8.38V13H50.5862V8.24C50.5862 7.80133 50.5115 7.47 50.3622 7.246C50.2222 7.022 49.9189 6.91 49.4522 6.91C49.2562 6.91 49.0695 6.94733 48.8922 7.022C48.7242 7.09667 48.5749 7.19467 48.4442 7.316C48.3229 7.43733 48.2249 7.568 48.1502 7.708C48.0849 7.83867 48.0522 7.96933 48.0522 8.1V13H46.8622ZM57.7802 13L57.6822 12.412C57.4676 12.6267 57.2249 12.7947 56.9542 12.916C56.6836 13.0373 56.3709 13.098 56.0162 13.098C55.5682 13.098 55.1996 13.028 54.9102 12.888C54.6209 12.748 54.3876 12.5427 54.2102 12.272C54.0329 12.0013 53.9069 11.6607 53.8322 11.25C53.7669 10.83 53.7342 10.3493 53.7342 9.808C53.7342 8.42667 53.9722 7.43267 54.4482 6.826C54.9336 6.21 55.7129 5.902 56.7862 5.902C56.9449 5.902 57.0896 5.90667 57.2202 5.916C57.3509 5.92533 57.4676 5.93933 57.5702 5.958V3.2H58.7602V13H57.7802ZM56.2402 12.09C56.4549 12.09 56.6462 12.0527 56.8142 11.978C56.9822 11.9033 57.1222 11.8053 57.2342 11.684C57.3462 11.5627 57.4302 11.432 57.4862 11.292C57.5422 11.152 57.5702 11.0213 57.5702 10.9V6.966C57.4676 6.94733 57.3416 6.93333 57.1922 6.924C57.0429 6.91467 56.8609 6.91 56.6462 6.91C56.3102 6.91 56.0349 6.98 55.8202 7.12C55.6056 7.25067 55.4329 7.44667 55.3022 7.708C55.1716 7.96 55.0782 8.27733 55.0222 8.66C54.9756 9.03333 54.9522 9.46267 54.9522 9.948C54.9522 10.368 54.9756 10.718 55.0222 10.998C55.0782 11.2687 55.1576 11.488 55.2602 11.656C55.3629 11.8147 55.4936 11.9267 55.6522 11.992C55.8202 12.0573 56.0162 12.09 56.2402 12.09ZM65.5629 13C65.4976 13 65.4136 12.9907 65.3109 12.972C65.2176 12.9533 65.1196 12.9207 65.0169 12.874C64.9142 12.8273 64.8162 12.7573 64.7229 12.664C64.6389 12.5707 64.5689 12.454 64.5129 12.314C64.3356 12.566 64.1022 12.762 63.8129 12.902C63.5236 13.0327 63.1409 13.098 62.6649 13.098C62.4129 13.098 62.1609 13.07 61.9089 13.014C61.6569 12.9673 61.4329 12.8693 61.2369 12.72C61.0409 12.5613 60.8822 12.3467 60.7609 12.076C60.6396 11.8053 60.5789 11.4553 60.5789 11.026C60.5789 10.27 60.7982 9.69133 61.2369 9.29C61.6756 8.88867 62.2869 8.688 63.0709 8.688H64.1769V7.932C64.1769 7.63333 64.0882 7.39067 63.9109 7.204C63.7429 7.008 63.4816 6.91 63.1269 6.91C62.7256 6.91 62.3756 6.93333 62.0769 6.98C61.7782 7.02667 61.4516 7.10133 61.0969 7.204V6.182C61.3582 6.10733 61.6522 6.042 61.9789 5.986C62.3056 5.93 62.6416 5.902 62.9869 5.902C63.4442 5.902 63.8222 5.94867 64.1209 6.042C64.4289 6.126 64.6716 6.266 64.8489 6.462C65.0356 6.64867 65.1662 6.88667 65.2409 7.176C65.3249 7.46533 65.3669 7.81067 65.3669 8.212V11.572C65.3669 11.712 65.4136 11.824 65.5069 11.908C65.6002 11.9827 65.7589 12.02 65.9829 12.02V13H65.5629ZM62.9449 12.09C63.1876 12.09 63.3882 12.0527 63.5469 11.978C63.7056 11.9033 63.8316 11.8147 63.9249 11.712C64.0182 11.6 64.0836 11.488 64.1209 11.376C64.1582 11.264 64.1769 11.1753 64.1769 11.11V9.64H63.0009C62.8516 9.64 62.7022 9.66333 62.5529 9.71C62.4129 9.75667 62.2869 9.836 62.1749 9.948C62.0629 10.0507 61.9696 10.186 61.8949 10.354C61.8296 10.5127 61.7969 10.7087 61.7969 10.942C61.7969 11.3807 61.8949 11.684 62.0909 11.852C62.2869 12.0107 62.5716 12.09 62.9449 12.09Z" fill="black"/>
</svg>
