<svg width="50" height="50" viewBox="0 0 50 50" fill="none" xmlns="http://www.w3.org/2000/svg">
<g id="monetization_on_24px">
<path id="icon/editor/monetization_on_24px" fill-rule="evenodd" clip-rule="evenodd" d="M25 4.16675C13.5 4.16675 4.16667 13.5001 4.16667 25.0001C4.16667 36.5001 13.5 45.8334 25 45.8334C36.5 45.8334 45.8333 36.5001 45.8333 25.0001C45.8333 13.5001 36.5 4.16675 25 4.16675ZM25 41.6667C15.8125 41.6667 8.33334 34.1876 8.33334 25.0001C8.33334 15.8126 15.8125 8.33342 25 8.33342C34.1875 8.33342 41.6667 15.8126 41.6667 25.0001C41.6667 34.1876 34.1875 41.6667 25 41.6667ZM20.7708 19.7292C20.7708 21.2501 21.9583 22.2709 25.6458 23.2084C29.3125 24.1667 33.25 25.7501 33.2708 30.3334C33.25 33.6876 30.75 35.5001 27.5833 36.1042V39.5834H22.7083V36.0417C19.5833 35.3959 16.9583 33.3959 16.75 29.8542H20.3333C20.5208 31.7709 21.8333 33.2709 25.1667 33.2709C28.7292 33.2709 29.5417 31.4792 29.5417 30.3751C29.5417 28.8751 28.7292 27.4376 24.6667 26.4792C20.1458 25.3959 17.0417 23.5209 17.0417 19.7917C17.0417 16.6459 19.5625 14.6042 22.7083 13.9376V10.4167H27.5625V13.9792C30.9375 14.8126 32.6458 17.3751 32.75 20.1667H29.1875C29.1042 18.1251 28.0208 16.7501 25.1458 16.7501C22.4167 16.7501 20.7708 17.9792 20.7708 19.7292Z" fill="white"/>
</g>
</svg>
