<svg width="73" height="73" viewBox="0 0 73 73" fill="none" xmlns="http://www.w3.org/2000/svg">
<path fill-rule="evenodd" clip-rule="evenodd" d="M57.7916 0H15.2083C11.0108 0 7.60413 3.40667 7.60413 7.60417V65.3958C7.60413 69.5933 11.0108 73 15.2083 73H57.7916C61.9891 73 65.3958 69.5933 65.3958 65.3958V7.60417C65.3958 3.40667 61.9891 0 57.7916 0ZM36.5 69.9583C33.9754 69.9583 31.9375 67.9204 31.9375 65.3958C31.9375 62.8712 33.9754 60.8333 36.5 60.8333C39.0246 60.8333 41.0625 62.8712 41.0625 65.3958C41.0625 67.9204 39.0246 69.9583 36.5 69.9583ZM13.6875 57.7917H59.3125V9.125H13.6875V57.7917Z" fill="black"/>
</svg>
